<?xml version="1.0" standalone="no"?>
<!DOCTYPE svg PUBLIC "-//W3C//DTD SVG 20010904//EN"
 "http://www.w3.org/TR/2001/REC-SVG-20010904/DTD/svg10.dtd">
<svg version="1.0" xmlns="http://www.w3.org/2000/svg"
 width="512.000000pt" height="512.000000pt" viewBox="0 0 512.000000 512.000000"
 preserveAspectRatio="xMidYMid meet">
<metadata>
Created by potrace 1.14, written by Peter Selinger 2001-2017
</metadata>
<g transform="translate(0.000000,512.000000) scale(0.100000,-0.100000)"
fill="#000000" stroke="none">
<path d="M0 2560 l0 -2560 2560 0 2560 0 0 2560 0 2560 -2560 0 -2560 0 0
-2560z m3660 1402 c232 -45 413 -117 538 -214 65 -50 142 -135 142 -157 0 -6
5 -11 10 -11 6 0 9 -3 9 -7 -3 -19 2 -34 10 -29 4 3 7 -6 5 -19 -1 -14 2 -25
7 -25 5 0 8 -3 7 -7 -1 -5 4 -21 11 -37 18 -43 49 -174 57 -236 4 -30 7 -119
9 -197 1 -121 -1 -146 -15 -160 -15 -17 -48 -18 -446 -17 l-429 0 -32 -23
c-49 -36 -59 -31 -67 35 -3 31 -14 78 -23 104 -17 47 -115 172 -127 161 -3 -4
-6 1 -6 11 0 9 -4 14 -10 11 -5 -3 -10 -2 -10 3 0 16 -98 56 -165 67 -16 3
-55 10 -85 15 -55 9 -808 7 -865 -2 -16 -3 -47 -10 -67 -16 -21 -6 -38 -9 -38
-7 0 2 -32 -9 -72 -26 -147 -61 -224 -145 -262 -289 -11 -43 -14 -111 -11
-320 3 -280 4 -291 35 -373 30 -80 156 -203 250 -244 121 -52 212 -61 620 -61
430 0 524 10 655 68 123 54 173 123 182 253 l6 77 518 0 c361 0 519 -3 519
-11 0 -6 -11 -25 -24 -42 -23 -30 -25 -42 -27 -157 -2 -206 -29 -331 -100
-474 -94 -189 -240 -312 -485 -406 -41 -15 -74 -27 -74 -25 0 2 -25 -5 -55
-15 -30 -10 -55 -17 -55 -15 0 3 -10 1 -23 -4 -12 -5 -42 -11 -67 -15 -25 -3
-56 -8 -69 -11 -71 -14 -260 -18 -871 -18 -760 -1 -912 5 -1080 38 -14 3 -36
7 -50 10 -27 5 -57 12 -92 21 -13 3 -34 7 -47 10 -42 9 -140 52 -204 90 -236
142 -383 380 -448 727 -11 62 -25 132 -30 155 -12 58 -11 789 1 797 6 4 10 21
10 38 0 33 23 165 39 227 81 313 234 516 486 643 123 62 310 111 473 124 42 3
79 8 82 10 2 2 394 2 870 0 843 -3 868 -4 980 -25z"/>
</g>
</svg>
